# xmcd
#
# Track frame offsets:
#	150
#	18875
#	30995
#	47713
#	61297
#	74679
#	87350
#	104521
#	115303
#	126608
#	136569
#
# Disc length: 1995
#
# Revision: 1
# Processed by: cddbd v1.5.1PL0 Copyright (c) Steve Scherf et al.
# Submitted via: dBpowerAMP V4.0
# Normalized: r0:TRMNUM
#
DISCID=9607c90b
DTITLE=Pure Prairie League - Two Lane Highway
DYEAR=1900
DGENRE=Country
TTITLE0=Two Lane Highway
TTITLE1=Kentucky Moonshine
TTITLE2=Runner
TTITLE3=Memories
TTITLE4=Kansas City Southern
TTITLE5=Harvest
TTITLE6=Sister's Keeper
TTITLE7=Just Can't Believe It
TTITLE8=Give Us A Rise
TTITLE9=I'll Change Your Flat Tire, Merle
TTITLE10=Pickin' To Beat The Devil
EXTD=
EXTT0=
EXTT1=
EXTT2=
EXTT3=
EXTT4=
EXTT5=
EXTT6=
EXTT7=
EXTT8=
EXTT9=
EXTT10=
PLAYORDER=
